<?xml version="1.0" encoding="UTF-8" standalone="no"?>
<!DOCTYPE svg PUBLIC "-//W3C//DTD SVG 1.1//EN"
 "http://www.w3.org/Graphics/SVG/1.1/DTD/svg11.dtd">
<!-- Generated by graphviz version 2.26.3 (20100126.1600)
 -->
<!-- Title: basic paxos Pages: 1 -->
<svg width="1602pt" height="552pt"
 viewBox="0.00 0.00 1602.00 552.46" xmlns="http://www.w3.org/2000/svg" xmlns:xlink="http://www.w3.org/1999/xlink">
<g id="graph1" class="graph" transform="scale(1 1) rotate(0) translate(4 548.456)">
<title>basic paxos</title>
<polygon fill="white" stroke="white" points="-4,5 -4,-548.456 1599,-548.456 1599,5 -4,5"/>
<!-- R1I0I0 -->
<g id="node1" class="node"><title>R1I0I0</title>
<polygon fill="none" stroke="black" points="62,-283.456 2.4869e-14,-283.456 0,-247.456 62,-247.456 62,-283.456"/>
<text text-anchor="middle" x="31" y="-261.856" font-family="Times Roman,serif" font-size="14.00">R1I0I0</text>
</g>
<!-- R1P1I0 -->
<g id="node53" class="node"><title>R1P1I0</title>
<polygon fill="none" stroke="black" points="313,-255.456 247,-255.456 247,-219.456 313,-219.456 313,-255.456"/>
<text text-anchor="middle" x="280" y="-233.856" font-family="Times Roman,serif" font-size="14.00">R1P1I0</text>
</g>
<!-- R1I0I0&#45;&gt;R1P1I0 -->
<g id="edge70" class="edge"><title>R1I0I0&#45;&gt;R1P1I0</title>
<path fill="none" stroke="black" d="M62.0088,-253.246C67.9035,-251.342 74.0808,-249.622 80,-248.456 133.044,-238.01 195.423,-236.195 236.235,-236.38"/>
<polygon fill="black" stroke="black" points="236.352,-239.881 246.382,-236.469 236.414,-232.881 236.352,-239.881"/>
<text text-anchor="middle" x="154" y="-253.856" font-family="Times Roman,serif" font-size="14.00">{Prepare;1&#45;&gt;2;n=1}</text>
</g>
<!-- R1I0P1 -->
<g id="node55" class="node"><title>R1I0P1</title>
<polygon fill="none" stroke="black" points="313,-309.456 247,-309.456 247,-273.456 313,-273.456 313,-309.456"/>
<text text-anchor="middle" x="280" y="-287.856" font-family="Times Roman,serif" font-size="14.00">R1I0P1</text>
</g>
<!-- R1I0I0&#45;&gt;R1I0P1 -->
<g id="edge72" class="edge"><title>R1I0I0&#45;&gt;R1I0P1</title>
<path fill="none" stroke="black" d="M62.0326,-268.696C105.849,-273.272 186.063,-281.647 236.009,-286.863"/>
<polygon fill="black" stroke="black" points="235.874,-290.367 246.184,-287.925 236.602,-283.405 235.874,-290.367"/>
<text text-anchor="middle" x="154" y="-290.856" font-family="Times Roman,serif" font-size="14.00">{Prepare;1&#45;&gt;3;n=1}</text>
</g>
<!-- I1I0I1 -->
<g id="node2" class="node"><title>I1I0I1</title>
<polygon fill="none" stroke="black" points="1085,-509.456 1029,-509.456 1029,-473.456 1085,-473.456 1085,-509.456"/>
<text text-anchor="middle" x="1057" y="-487.856" font-family="Times Roman,serif" font-size="14.00">I1I0I1</text>
</g>
<!-- I1P1I1 -->
<g id="node4" class="node"><title>I1P1I1</title>
<polygon fill="none" stroke="black" points="1344,-381.456 1282,-381.456 1282,-345.456 1344,-345.456 1344,-381.456"/>
<text text-anchor="middle" x="1313" y="-359.856" font-family="Times Roman,serif" font-size="14.00">I1P1I1</text>
</g>
<!-- I1I0I1&#45;&gt;I1P1I1 -->
<g id="edge2" class="edge"><title>I1I0I1&#45;&gt;I1P1I1</title>
<path fill="none" stroke="black" d="M1085.59,-484.899C1127.28,-474.44 1206.1,-451.22 1264,-413.456 1274.13,-406.847 1283.79,-397.82 1291.82,-389.253"/>
<polygon fill="black" stroke="black" points="1294.61,-391.376 1298.69,-381.597 1289.41,-386.699 1294.61,-391.376"/>
<text text-anchor="middle" x="1186" y="-482.856" font-family="Times Roman,serif" font-size="14.00">{Prepare;1&#45;&gt;2;n=1}</text>
</g>
<!-- I1I1I1 -->
<g id="node13" class="node"><title>I1I1I1</title>
<polygon fill="none" stroke="black" points="1593,-257.456 1537,-257.456 1537,-221.456 1593,-221.456 1593,-257.456"/>
<text text-anchor="middle" x="1565" y="-235.856" font-family="Times Roman,serif" font-size="14.00">I1I1I1</text>
</g>
<!-- I1P1I1&#45;&gt;I1I1I1 -->
<g id="edge16" class="edge"><title>I1P1I1&#45;&gt;I1I1I1</title>
<path fill="none" stroke="black" d="M1344.19,-349.246C1384.62,-330.668 1457.15,-296.794 1518,-265.456 1521.08,-263.871 1524.25,-262.199 1527.43,-260.498"/>
<polygon fill="black" stroke="black" points="1529.19,-263.523 1536.31,-255.678 1525.85,-257.37 1529.19,-263.523"/>
<text text-anchor="middle" x="1440" y="-344.856" font-family="Times Roman,serif" font-size="14.00">{Accept;1&#45;&gt;2;n=1}</text>
</g>
<!-- I1I0P1 -->
<g id="node5" class="node"><title>I1I0P1</title>
<polygon fill="none" stroke="black" points="828,-389.456 766,-389.456 766,-353.456 828,-353.456 828,-389.456"/>
<text text-anchor="middle" x="797" y="-367.856" font-family="Times Roman,serif" font-size="14.00">I1I0P1</text>
</g>
<!-- I1I0P1&#45;&gt;I1I0I1 -->
<g id="edge6" class="edge"><title>I1I0P1&#45;&gt;I1I0I1</title>
<path fill="none" stroke="black" d="M828.039,-383.886C835.164,-386.372 842.771,-388.743 850,-390.456 917.963,-406.563 947.114,-371.895 1006,-409.456 1025.77,-422.066 1039.16,-445.373 1047.24,-463.925"/>
<polygon fill="black" stroke="black" points="1044.08,-465.436 1051.09,-473.377 1050.56,-462.796 1044.08,-465.436"/>
<text text-anchor="middle" x="928" y="-414.856" font-family="Times Roman,serif" font-size="14.00">{Accept;1&#45;&gt;3;n=1}</text>
</g>
<!-- I1P1P1 -->
<g id="node7" class="node"><title>I1P1P1</title>
<polygon fill="none" stroke="black" points="1090,-266.456 1024,-266.456 1024,-230.456 1090,-230.456 1090,-266.456"/>
<text text-anchor="middle" x="1057" y="-244.856" font-family="Times Roman,serif" font-size="14.00">I1P1P1</text>
</g>
<!-- I1I0P1&#45;&gt;I1P1P1 -->
<g id="edge4" class="edge"><title>I1I0P1&#45;&gt;I1P1P1</title>
<path fill="none" stroke="black" d="M828.305,-368.951C884.834,-364.318 998.793,-354.429 1006,-349.456 1030.65,-332.448 1044.02,-299.882 1050.81,-276.318"/>
<polygon fill="black" stroke="black" points="1054.23,-277.091 1053.41,-266.528 1047.46,-275.296 1054.23,-277.091"/>
<text text-anchor="middle" x="928" y="-371.856" font-family="Times Roman,serif" font-size="14.00">{Prepare;1&#45;&gt;2;n=1}</text>
</g>
<!-- I1P1P1&#45;&gt;I1P1I1 -->
<g id="edge20" class="edge"><title>I1P1P1&#45;&gt;I1P1I1</title>
<path fill="none" stroke="black" d="M1090.13,-255.934C1096.07,-257.179 1102.21,-258.405 1108,-259.456 1176.96,-271.962 1205.63,-243.665 1264,-282.456 1282.94,-295.044 1295.72,-317.689 1303.47,-335.842"/>
<polygon fill="black" stroke="black" points="1300.31,-337.375 1307.26,-345.372 1306.82,-334.786 1300.31,-337.375"/>
<text text-anchor="middle" x="1186" y="-287.856" font-family="Times Roman,serif" font-size="14.00">{Accept;1&#45;&gt;3;n=1}</text>
</g>
<!-- I1I1P1 -->
<g id="node11" class="node"><title>I1I1P1</title>
<polygon fill="none" stroke="black" points="1344,-176.456 1282,-176.456 1282,-140.456 1344,-140.456 1344,-176.456"/>
<text text-anchor="middle" x="1313" y="-154.856" font-family="Times Roman,serif" font-size="14.00">I1I1P1</text>
</g>
<!-- I1P1P1&#45;&gt;I1I1P1 -->
<g id="edge18" class="edge"><title>I1P1P1&#45;&gt;I1I1P1</title>
<path fill="none" stroke="black" d="M1090.35,-243.778C1148.41,-235.613 1262.12,-219.521 1264,-218.456 1267.93,-216.235 1281.19,-199.864 1292.93,-184.784"/>
<polygon fill="black" stroke="black" points="1295.88,-186.689 1299.23,-176.637 1290.35,-182.409 1295.88,-186.689"/>
<text text-anchor="middle" x="1186" y="-245.856" font-family="Times Roman,serif" font-size="14.00">{Accept;1&#45;&gt;2;n=1}</text>
</g>
<!-- I1I1I0 -->
<g id="node9" class="node"><title>I1I1I0</title>
<polygon fill="none" stroke="black" points="1085,-64.456 1029,-64.456 1029,-28.456 1085,-28.456 1085,-64.456"/>
<text text-anchor="middle" x="1057" y="-42.856" font-family="Times Roman,serif" font-size="14.00">I1I1I0</text>
</g>
<!-- I1I1I0&#45;&gt;I1I1P1 -->
<g id="edge8" class="edge"><title>I1I1I0&#45;&gt;I1I1P1</title>
<path fill="none" stroke="black" d="M1085.78,-43.6952C1128.42,-41.0891 1209.21,-41.984 1264,-78.456 1282.65,-90.8682 1295.4,-113.033 1303.21,-130.89"/>
<polygon fill="black" stroke="black" points="1300.02,-132.345 1307.05,-140.278 1306.5,-129.697 1300.02,-132.345"/>
<text text-anchor="middle" x="1186" y="-83.856" font-family="Times Roman,serif" font-size="14.00">{Prepare;1&#45;&gt;3;n=1}</text>
</g>
<!-- I1I1P1&#45;&gt;I1I1I1 -->
<g id="edge10" class="edge"><title>I1I1P1&#45;&gt;I1I1I1</title>
<path fill="none" stroke="black" d="M1344.24,-155.962C1386.32,-154.014 1462.34,-155.567 1518,-185.456 1529.98,-191.887 1540.3,-202.68 1548.19,-212.933"/>
<polygon fill="black" stroke="black" points="1545.55,-215.25 1554.24,-221.312 1551.23,-211.154 1545.55,-215.25"/>
<text text-anchor="middle" x="1440" y="-190.856" font-family="Times Roman,serif" font-size="14.00">{Accept;1&#45;&gt;3;n=1}</text>
</g>
<!-- I1P1I0 -->
<g id="node14" class="node"><title>I1P1I0</title>
<polygon fill="none" stroke="black" points="828,-184.456 766,-184.456 766,-148.456 828,-148.456 828,-184.456"/>
<text text-anchor="middle" x="797" y="-162.856" font-family="Times Roman,serif" font-size="14.00">I1P1I0</text>
</g>
<!-- I1P1I0&#45;&gt;I1P1P1 -->
<g id="edge14" class="edge"><title>I1P1I0&#45;&gt;I1P1P1</title>
<path fill="none" stroke="black" d="M828.02,-157.861C870.99,-147.802 949.691,-136.193 1006,-167.456 1016.88,-173.499 1032.5,-200.214 1043.58,-221.334"/>
<polygon fill="black" stroke="black" points="1040.48,-222.966 1048.17,-230.257 1046.7,-219.763 1040.48,-222.966"/>
<text text-anchor="middle" x="928" y="-172.856" font-family="Times Roman,serif" font-size="14.00">{Prepare;1&#45;&gt;3;n=1}</text>
</g>
<!-- I1P1I0&#45;&gt;I1I1I0 -->
<g id="edge12" class="edge"><title>I1P1I0&#45;&gt;I1I1I0</title>
<path fill="none" stroke="black" d="M815.004,-148.156C824.579,-139.541 837.035,-129.968 850,-124.456 914.383,-97.0861 944.186,-136.217 1006,-103.456 1019.46,-96.3205 1031.1,-84.1294 1039.85,-72.8486"/>
<polygon fill="black" stroke="black" points="1042.88,-74.6362 1045.96,-64.4983 1037.23,-70.5038 1042.88,-74.6362"/>
<text text-anchor="middle" x="928" y="-129.856" font-family="Times Roman,serif" font-size="14.00">{Accept;1&#45;&gt;2;n=1}</text>
</g>
<!-- L1I0I1 -->
<g id="node20" class="node"><title>L1I0I1</title>
<polygon fill="none" stroke="black" points="827,-491.456 767,-491.456 767,-455.456 827,-455.456 827,-491.456"/>
<text text-anchor="middle" x="797" y="-469.856" font-family="Times Roman,serif" font-size="14.00">L1I0I1</text>
</g>
<!-- L1I0I1&#45;&gt;I1I0I1 -->
<g id="edge24" class="edge"><title>L1I0I1&#45;&gt;I1I0I1</title>
<path fill="none" stroke="black" d="M814.875,-491.608C824.418,-499.998 836.883,-509.062 850,-513.456 915.742,-535.48 938.099,-527.477 1006,-513.456 1010.2,-512.589 1014.47,-511.361 1018.67,-509.922"/>
<polygon fill="black" stroke="black" points="1020.18,-513.094 1028.27,-506.255 1017.68,-506.555 1020.18,-513.094"/>
<text text-anchor="middle" x="928" y="-531.856" font-family="Times Roman,serif" font-size="14.00">{Accepted;2&#45;&gt;1;n=1}</text>
</g>
<!-- L1I0I1&#45;&gt;I1I0I1 -->
<g id="edge26" class="edge"><title>L1I0I1&#45;&gt;I1I0I1</title>
<path fill="none" stroke="black" d="M827.59,-475.574C874.935,-478.851 965.916,-485.15 1017.95,-488.752"/>
<polygon fill="black" stroke="black" points="1017.9,-492.257 1028.12,-489.456 1018.38,-485.274 1017.9,-492.257"/>
<text text-anchor="middle" x="928" y="-492.856" font-family="Times Roman,serif" font-size="14.00">{Accepted;3&#45;&gt;1;n=1}</text>
</g>
<!-- L1P1I1 -->
<g id="node22" class="node"><title>L1P1I1</title>
<polygon fill="none" stroke="black" points="1089,-381.456 1025,-381.456 1025,-345.456 1089,-345.456 1089,-381.456"/>
<text text-anchor="middle" x="1057" y="-359.856" font-family="Times Roman,serif" font-size="14.00">L1P1I1</text>
</g>
<!-- L1I0I1&#45;&gt;L1P1I1 -->
<g id="edge22" class="edge"><title>L1I0I1&#45;&gt;L1P1I1</title>
<path fill="none" stroke="black" d="M827.51,-461.358C834.795,-458.795 842.604,-456.308 850,-454.456 917.985,-437.437 945.776,-467.298 1006,-431.456 1022.02,-421.922 1034.65,-405.239 1043.33,-390.784"/>
<polygon fill="black" stroke="black" points="1046.59,-392.132 1048.46,-381.704 1040.5,-388.687 1046.59,-392.132"/>
<text text-anchor="middle" x="928" y="-459.856" font-family="Times Roman,serif" font-size="14.00">{Prepare;1&#45;&gt;2;n=1}</text>
</g>
<!-- L1P1I1&#45;&gt;I1P1I1 -->
<g id="edge58" class="edge"><title>L1P1I1&#45;&gt;I1P1I1</title>
<path fill="none" stroke="black" d="M1089.68,-363.456C1135.99,-363.456 1220.71,-363.456 1271.43,-363.456"/>
<polygon fill="black" stroke="black" points="1271.71,-366.956 1281.71,-363.456 1271.71,-359.956 1271.71,-366.956"/>
<text text-anchor="middle" x="1186" y="-368.856" font-family="Times Roman,serif" font-size="14.00">{Accepted;2&#45;&gt;1;n=1}</text>
</g>
<!-- L1P1I1&#45;&gt;I1P1I1 -->
<g id="edge60" class="edge"><title>L1P1I1&#45;&gt;I1P1I1</title>
<path fill="none" stroke="black" d="M1089.71,-377.584C1095.69,-379.606 1101.96,-381.367 1108,-382.456 1176.23,-394.753 1195.85,-395.206 1264,-382.456 1266.68,-381.954 1269.41,-381.31 1272.13,-380.564"/>
<polygon fill="black" stroke="black" points="1273.39,-383.836 1281.87,-377.488 1271.28,-377.16 1273.39,-383.836"/>
<text text-anchor="middle" x="1186" y="-396.856" font-family="Times Roman,serif" font-size="14.00">{Accepted;3&#45;&gt;1;n=1}</text>
</g>
<!-- L1I1I1 -->
<g id="node35" class="node"><title>L1I1I1</title>
<polygon fill="none" stroke="black" points="1343,-244.456 1283,-244.456 1283,-208.456 1343,-208.456 1343,-244.456"/>
<text text-anchor="middle" x="1313" y="-222.856" font-family="Times Roman,serif" font-size="14.00">L1I1I1</text>
</g>
<!-- L1P1I1&#45;&gt;L1I1I1 -->
<g id="edge56" class="edge"><title>L1P1I1&#45;&gt;L1I1I1</title>
<path fill="none" stroke="black" d="M1089.64,-348.518C1095.68,-345.999 1101.98,-343.531 1108,-341.456 1175.77,-318.081 1205.72,-342.195 1264,-300.456 1280.29,-288.792 1292.67,-269.888 1300.91,-254.107"/>
<polygon fill="black" stroke="black" points="1304.23,-255.295 1305.51,-244.778 1297.95,-252.202 1304.23,-255.295"/>
<text text-anchor="middle" x="1186" y="-346.856" font-family="Times Roman,serif" font-size="14.00">{Accept;1&#45;&gt;2;n=1}</text>
</g>
<!-- L1I0P1 -->
<g id="node25" class="node"><title>L1I0P1</title>
<polygon fill="none" stroke="black" points="566,-368.456 502,-368.456 502,-332.456 566,-332.456 566,-368.456"/>
<text text-anchor="middle" x="534" y="-346.856" font-family="Times Roman,serif" font-size="14.00">L1I0P1</text>
</g>
<!-- L1I0P1&#45;&gt;I1I0P1 -->
<g id="edge32" class="edge"><title>L1I0P1&#45;&gt;I1I0P1</title>
<path fill="none" stroke="black" d="M566.513,-353.052C614.214,-356.861 703.163,-363.963 755.515,-368.143"/>
<polygon fill="black" stroke="black" points="755.541,-371.657 765.788,-368.964 756.098,-364.679 755.541,-371.657"/>
<text text-anchor="middle" x="666" y="-371.856" font-family="Times Roman,serif" font-size="14.00">{Accepted;2&#45;&gt;1;n=1}</text>
</g>
<!-- L1I0P1&#45;&gt;L1I0I1 -->
<g id="edge30" class="edge"><title>L1I0P1&#45;&gt;L1I0I1</title>
<path fill="none" stroke="black" d="M557.172,-368.502C566.453,-375.259 577.435,-382.688 588,-388.456 644.137,-419.105 713.687,-445.236 756.703,-460.144"/>
<polygon fill="black" stroke="black" points="755.659,-463.486 766.253,-463.42 757.93,-456.864 755.659,-463.486"/>
<text text-anchor="middle" x="666" y="-458.856" font-family="Times Roman,serif" font-size="14.00">{Accept;1&#45;&gt;3;n=1}</text>
</g>
<!-- L1P1P1 -->
<g id="node27" class="node"><title>L1P1P1</title>
<polygon fill="none" stroke="black" points="832,-287.456 762,-287.456 762,-251.456 832,-251.456 832,-287.456"/>
<text text-anchor="middle" x="797" y="-265.856" font-family="Times Roman,serif" font-size="14.00">L1P1P1</text>
</g>
<!-- L1I0P1&#45;&gt;L1P1P1 -->
<g id="edge28" class="edge"><title>L1I0P1&#45;&gt;L1P1P1</title>
<path fill="none" stroke="black" d="M566.742,-339.2C573.733,-336.892 581.092,-334.535 588,-332.456 656.755,-311.761 675.846,-313.051 744,-290.456 746.73,-289.551 749.524,-288.581 752.331,-287.572"/>
<polygon fill="black" stroke="black" points="753.702,-290.796 761.855,-284.031 751.262,-284.235 753.702,-290.796"/>
<text text-anchor="middle" x="666" y="-337.856" font-family="Times Roman,serif" font-size="14.00">{Prepare;1&#45;&gt;2;n=1}</text>
</g>
<!-- L1P1P1&#45;&gt;I1P1P1 -->
<g id="edge66" class="edge"><title>L1P1P1&#45;&gt;I1P1P1</title>
<path fill="none" stroke="black" d="M832.138,-254.22C838.004,-252.253 844.101,-250.547 850,-249.456 905.708,-239.156 971.3,-241.162 1013.48,-244.224"/>
<polygon fill="black" stroke="black" points="1013.44,-247.731 1023.68,-245.018 1013.98,-240.752 1013.44,-247.731"/>
<text text-anchor="middle" x="928" y="-254.856" font-family="Times Roman,serif" font-size="14.00">{Accepted;2&#45;&gt;1;n=1}</text>
</g>
<!-- L1P1P1&#45;&gt;I1P1P1 -->
<g id="edge68" class="edge"><title>L1P1P1&#45;&gt;I1P1P1</title>
<path fill="none" stroke="black" d="M832.116,-272.789C873.932,-275.917 945.701,-278.621 1006,-267.456 1008.65,-266.965 1011.35,-266.347 1014.04,-265.637"/>
<polygon fill="black" stroke="black" points="1015.16,-268.956 1023.73,-262.722 1013.14,-262.253 1015.16,-268.956"/>
<text text-anchor="middle" x="928" y="-280.856" font-family="Times Roman,serif" font-size="14.00">{Accepted;3&#45;&gt;1;n=1}</text>
</g>
<!-- L1P1P1&#45;&gt;L1P1I1 -->
<g id="edge64" class="edge"><title>L1P1P1&#45;&gt;L1P1I1</title>
<path fill="none" stroke="black" d="M827.742,-287.492C834.882,-291.171 842.571,-294.742 850,-297.456 916.651,-321.809 940.3,-304.643 1006,-331.456 1011.84,-333.841 1017.77,-336.88 1023.41,-340.133"/>
<polygon fill="black" stroke="black" points="1021.63,-343.146 1031.99,-345.358 1025.27,-337.168 1021.63,-343.146"/>
<text text-anchor="middle" x="928" y="-336.856" font-family="Times Roman,serif" font-size="14.00">{Accept;1&#45;&gt;3;n=1}</text>
</g>
<!-- L1I1P1 -->
<g id="node32" class="node"><title>L1I1P1</title>
<polygon fill="none" stroke="black" points="1089,-176.456 1025,-176.456 1025,-140.456 1089,-140.456 1089,-176.456"/>
<text text-anchor="middle" x="1057" y="-154.856" font-family="Times Roman,serif" font-size="14.00">L1I1P1</text>
</g>
<!-- L1P1P1&#45;&gt;L1I1P1 -->
<g id="edge62" class="edge"><title>L1P1P1&#45;&gt;L1I1P1</title>
<path fill="none" stroke="black" d="M811.863,-251.111C821.602,-240.297 835.231,-227.247 850,-219.456 912.763,-186.346 939.359,-209.838 1006,-185.456 1009.65,-184.119 1013.37,-182.567 1017.05,-180.895"/>
<polygon fill="black" stroke="black" points="1018.57,-184.047 1026.06,-176.548 1015.53,-177.743 1018.57,-184.047"/>
<text text-anchor="middle" x="928" y="-224.856" font-family="Times Roman,serif" font-size="14.00">{Accept;1&#45;&gt;2;n=1}</text>
</g>
<!-- L1I1I0 -->
<g id="node30" class="node"><title>L1I1I0</title>
<polygon fill="none" stroke="black" points="827,-81.456 767,-81.456 767,-45.456 827,-45.456 827,-81.456"/>
<text text-anchor="middle" x="797" y="-59.856" font-family="Times Roman,serif" font-size="14.00">L1I1I0</text>
</g>
<!-- L1I1I0&#45;&gt;I1I1I0 -->
<g id="edge36" class="edge"><title>L1I1I0&#45;&gt;I1I1I0</title>
<path fill="none" stroke="black" d="M827.623,-50.4693C834.835,-47.9775 842.585,-45.745 850,-44.456 907.939,-34.3844 976.383,-38.0053 1018.23,-41.9293"/>
<polygon fill="black" stroke="black" points="1017.98,-45.4213 1028.27,-42.9253 1018.67,-38.4555 1017.98,-45.4213"/>
<text text-anchor="middle" x="928" y="-49.856" font-family="Times Roman,serif" font-size="14.00">{Accepted;2&#45;&gt;1;n=1}</text>
</g>
<!-- L1I1I0&#45;&gt;I1I1I0 -->
<g id="edge38" class="edge"><title>L1I1I0&#45;&gt;I1I1I0</title>
<path fill="none" stroke="black" d="M811.576,-45.1116C821.206,-34.5321 834.823,-22.2162 850,-16.456 914.822,8.14575 939.103,1.76074 1006,-16.456 1011.84,-18.0467 1017.7,-20.4951 1023.25,-23.3219"/>
<polygon fill="black" stroke="black" points="1021.82,-26.5301 1032.25,-28.3519 1025.23,-20.4191 1021.82,-26.5301"/>
<text text-anchor="middle" x="928" y="-21.856" font-family="Times Roman,serif" font-size="14.00">{Accepted;3&#45;&gt;1;n=1}</text>
</g>
<!-- L1I1I0&#45;&gt;L1I1P1 -->
<g id="edge34" class="edge"><title>L1I1I0&#45;&gt;L1I1P1</title>
<path fill="none" stroke="black" d="M827.556,-63.6058C878.117,-64.3542 976.539,-68.0778 1006,-85.456 1023.7,-95.896 1036.77,-115.173 1045.24,-131.297"/>
<polygon fill="black" stroke="black" points="1042.14,-132.916 1049.7,-140.336 1048.42,-129.819 1042.14,-132.916"/>
<text text-anchor="middle" x="928" y="-90.856" font-family="Times Roman,serif" font-size="14.00">{Prepare;1&#45;&gt;3;n=1}</text>
</g>
<!-- L1I1P1&#45;&gt;I1I1P1 -->
<g id="edge46" class="edge"><title>L1I1P1&#45;&gt;I1I1P1</title>
<path fill="none" stroke="black" d="M1074.08,-140.316C1083.23,-131.929 1095.24,-122.864 1108,-118.456 1173.53,-95.8217 1198.69,-95.1834 1264,-118.456 1273.12,-121.704 1281.76,-127.456 1289.18,-133.603"/>
<polygon fill="black" stroke="black" points="1286.93,-136.28 1296.72,-140.329 1291.59,-131.058 1286.93,-136.28"/>
<text text-anchor="middle" x="1186" y="-123.856" font-family="Times Roman,serif" font-size="14.00">{Accepted;2&#45;&gt;1;n=1}</text>
</g>
<!-- L1I1P1&#45;&gt;I1I1P1 -->
<g id="edge48" class="edge"><title>L1I1P1&#45;&gt;I1I1P1</title>
<path fill="none" stroke="black" d="M1089.68,-158.456C1135.99,-158.456 1220.71,-158.456 1271.43,-158.456"/>
<polygon fill="black" stroke="black" points="1271.71,-161.956 1281.71,-158.456 1271.71,-154.956 1271.71,-161.956"/>
<text text-anchor="middle" x="1186" y="-163.856" font-family="Times Roman,serif" font-size="14.00">{Accepted;3&#45;&gt;1;n=1}</text>
</g>
<!-- L1I1P1&#45;&gt;L1I1I1 -->
<g id="edge44" class="edge"><title>L1I1P1&#45;&gt;L1I1I1</title>
<path fill="none" stroke="black" d="M1089.6,-171.754C1095.64,-173.889 1101.96,-175.904 1108,-177.456 1175.88,-194.897 1197.41,-178.603 1264,-200.456 1267.16,-201.492 1270.35,-202.721 1273.52,-204.072"/>
<polygon fill="black" stroke="black" points="1272.32,-207.376 1282.87,-208.421 1275.28,-201.029 1272.32,-207.376"/>
<text text-anchor="middle" x="1186" y="-205.856" font-family="Times Roman,serif" font-size="14.00">{Accept;1&#45;&gt;3;n=1}</text>
</g>
<!-- L1I1I1&#45;&gt;I1I1I1 -->
<g id="edge40" class="edge"><title>L1I1I1&#45;&gt;I1I1I1</title>
<path fill="none" stroke="black" d="M1343.64,-235.128C1349.68,-236.505 1356,-237.717 1362,-238.456 1418.79,-245.451 1485.21,-243.975 1526.19,-241.96"/>
<polygon fill="black" stroke="black" points="1526.49,-245.449 1536.29,-241.427 1526.12,-238.459 1526.49,-245.449"/>
<text text-anchor="middle" x="1440" y="-248.856" font-family="Times Roman,serif" font-size="14.00">{Accepted;2&#45;&gt;1;n=1}</text>
</g>
<!-- L1I1I1&#45;&gt;I1I1I1 -->
<g id="edge42" class="edge"><title>L1I1I1&#45;&gt;I1I1I1</title>
<path fill="none" stroke="black" d="M1343.7,-219.207C1349.73,-218.062 1356.04,-217.058 1362,-216.456 1430.98,-209.489 1450.45,-200.815 1518,-216.456 1521,-217.151 1524.03,-218.065 1527.03,-219.128"/>
<polygon fill="black" stroke="black" points="1525.85,-222.426 1536.43,-222.946 1528.48,-215.941 1525.85,-222.426"/>
<text text-anchor="middle" x="1440" y="-221.856" font-family="Times Roman,serif" font-size="14.00">{Accepted;3&#45;&gt;1;n=1}</text>
</g>
<!-- L1P1I0 -->
<g id="node41" class="node"><title>L1P1I0</title>
<polygon fill="none" stroke="black" points="566,-191.456 502,-191.456 502,-155.456 566,-155.456 566,-191.456"/>
<text text-anchor="middle" x="534" y="-169.856" font-family="Times Roman,serif" font-size="14.00">L1P1I0</text>
</g>
<!-- L1P1I0&#45;&gt;I1P1I0 -->
<g id="edge54" class="edge"><title>L1P1I0&#45;&gt;I1P1I0</title>
<path fill="none" stroke="black" d="M566.506,-169.281C573.579,-168.53 581.031,-167.859 588,-167.456 646.107,-164.098 713.451,-164.556 755.644,-165.366"/>
<polygon fill="black" stroke="black" points="755.737,-168.868 765.808,-165.577 755.883,-161.87 755.737,-168.868"/>
<text text-anchor="middle" x="666" y="-172.856" font-family="Times Roman,serif" font-size="14.00">{Accepted;3&#45;&gt;1;n=1}</text>
</g>
<!-- L1P1I0&#45;&gt;L1P1P1 -->
<g id="edge52" class="edge"><title>L1P1I0&#45;&gt;L1P1P1</title>
<path fill="none" stroke="black" d="M566.507,-180.906C573.581,-182.464 581.032,-184.057 588,-185.456 657.063,-199.322 682.022,-179.978 744,-213.456 757.327,-220.655 769.228,-232.431 778.359,-243.331"/>
<polygon fill="black" stroke="black" points="775.816,-245.757 784.78,-251.406 781.295,-241.4 775.816,-245.757"/>
<text text-anchor="middle" x="666" y="-218.856" font-family="Times Roman,serif" font-size="14.00">{Prepare;1&#45;&gt;3;n=1}</text>
</g>
<!-- L1P1I0&#45;&gt;L1I1I0 -->
<g id="edge50" class="edge"><title>L1P1I0&#45;&gt;L1I1I0</title>
<path fill="none" stroke="black" d="M563.537,-155.369C571.359,-150.894 579.887,-146.288 588,-142.456 644.987,-115.539 713.824,-90.9676 756.515,-76.6063"/>
<polygon fill="black" stroke="black" points="757.882,-79.84 766.259,-73.3532 755.665,-73.2002 757.882,-79.84"/>
<text text-anchor="middle" x="666" y="-147.856" font-family="Times Roman,serif" font-size="14.00">{Accept;1&#45;&gt;2;n=1}</text>
</g>
<!-- R1P1I0&#45;&gt;L1P1I0 -->
<g id="edge80" class="edge"><title>R1P1I0&#45;&gt;L1P1I0</title>
<path fill="none" stroke="black" d="M313.717,-221.285C319.72,-218.769 325.98,-216.373 332,-214.456 385.75,-197.336 449.9,-185.754 491.26,-179.381"/>
<polygon fill="black" stroke="black" points="491.897,-182.824 501.264,-177.873 490.854,-175.903 491.897,-182.824"/>
<text text-anchor="middle" x="406" y="-219.856" font-family="Times Roman,serif" font-size="14.00">{Promise;2&#45;&gt;1;n=1}</text>
</g>
<!-- R1P1P1 -->
<g id="node57" class="node"><title>R1P1P1</title>
<polygon fill="none" stroke="black" points="569,-286.456 499,-286.456 499,-250.456 569,-250.456 569,-286.456"/>
<text text-anchor="middle" x="534" y="-264.856" font-family="Times Roman,serif" font-size="14.00">R1P1P1</text>
</g>
<!-- R1P1I0&#45;&gt;R1P1P1 -->
<g id="edge78" class="edge"><title>R1P1I0&#45;&gt;R1P1P1</title>
<path fill="none" stroke="black" d="M313.601,-237.025C353.615,-237.111 422.291,-239.158 480,-250.456 482.818,-251.008 485.693,-251.666 488.574,-252.4"/>
<polygon fill="black" stroke="black" points="487.753,-255.805 498.327,-255.14 489.646,-249.066 487.753,-255.805"/>
<text text-anchor="middle" x="406" y="-255.856" font-family="Times Roman,serif" font-size="14.00">{Prepare;1&#45;&gt;3;n=1}</text>
</g>
<!-- R1I0P1&#45;&gt;L1I0P1 -->
<g id="edge76" class="edge"><title>R1I0P1&#45;&gt;L1I0P1</title>
<path fill="none" stroke="black" d="M313.683,-303.069C319.746,-304.987 326.035,-306.866 332,-308.456 386.402,-322.956 450.149,-335.484 491.258,-342.995"/>
<polygon fill="black" stroke="black" points="490.738,-346.457 501.202,-344.794 491.985,-339.569 490.738,-346.457"/>
<text text-anchor="middle" x="406" y="-345.856" font-family="Times Roman,serif" font-size="14.00">{Promise;3&#45;&gt;1;n=1}</text>
</g>
<!-- R1I0P1&#45;&gt;R1P1P1 -->
<g id="edge74" class="edge"><title>R1I0P1&#45;&gt;R1P1P1</title>
<path fill="none" stroke="black" d="M313.729,-288.402C358.58,-284.34 438.02,-277.147 488.244,-272.599"/>
<polygon fill="black" stroke="black" points="488.851,-276.059 498.494,-271.671 488.219,-269.087 488.851,-276.059"/>
<text text-anchor="middle" x="406" y="-291.856" font-family="Times Roman,serif" font-size="14.00">{Prepare;1&#45;&gt;2;n=1}</text>
</g>
<!-- R1P1P1&#45;&gt;L1P1P1 -->
<g id="edge82" class="edge"><title>R1P1P1&#45;&gt;L1P1P1</title>
<path fill="none" stroke="black" d="M569.743,-268.592C616.914,-268.771 699.989,-269.087 751.566,-269.283"/>
<polygon fill="black" stroke="black" points="751.742,-272.784 761.755,-269.322 751.769,-265.784 751.742,-272.784"/>
<text text-anchor="middle" x="666" y="-273.856" font-family="Times Roman,serif" font-size="14.00">{Promise;2&#45;&gt;1;n=1}</text>
</g>
<!-- R1P1P1&#45;&gt;L1P1P1 -->
<g id="edge84" class="edge"><title>R1P1P1&#45;&gt;L1P1P1</title>
<path fill="none" stroke="black" d="M569.715,-251.674C575.702,-249.514 581.94,-247.643 588,-246.456 656.04,-233.128 676.114,-232.361 744,-246.456 746.67,-247.01 749.371,-247.706 752.066,-248.508"/>
<polygon fill="black" stroke="black" points="751.137,-251.889 761.732,-251.806 753.398,-245.264 751.137,-251.889"/>
<text text-anchor="middle" x="666" y="-251.856" font-family="Times Roman,serif" font-size="14.00">{Promise;3&#45;&gt;1;n=1}</text>
</g>
</g>
</svg>
